<?xml version="1.0" encoding="UTF-8"?>
<svg id="Layer_2" data-name="Layer 2" xmlns="http://www.w3.org/2000/svg" viewBox="0 0 352.76 185.78">
  <defs>
    <style>
      .cls-1 {
        fill: #cebf9f;
      }
    </style>
  </defs>
  <g id="Layer_1-2" data-name="Layer 1">
    <g>
      <path class="cls-1" d="M109.57,68.01c5.44-1.05,5.31-4.5,5.31-6.05v-3.16s-.02,0-.03,0V8.94c0-1.56-1.92-7-7.35-8.05-5.44-1.05-13-.79-21.07-.79H29.58C21.51.09,13.03-.16,7.59.89,2.14,1.94,1.16,8.12,1.16,9.68v52.53c0,1.56-.14,5,5.31,6.05-5.44,1.05-5.31,2.89-5.31,4.45v52.74c0,1.56.24,7.69,5.69,8.74,5.44,1.05,14.39,1.12,22.63.88h56.96c8.07,0,18.23.43,23.67-.62,5.44-1.05,4.76-5.04,4.74-7.91v-45.72s.02,0,.03,0v-8.38c0-1.56.14-3.4-5.31-4.45M4.38,8.98l98.42.61-.03,53.39-87.67.04-.19-46.46s-.44-6.64-10.54-7.58M102.76,125.45l-88.02.06.19-41.81s1.2-11.1-8.9-12.05l96.78.02-.05,53.77Z"/>
      <path class="cls-1" d="M349.87,126.62v-1.27s.01,0,.02,0c0-.36-.01-.71-.01-1.05V11.02c0-3.11-1.92-7.28-7.35-9.38-5.44-2.1-13-1.59-21.07-1.59h-56.84c-8.08,0-16.56-.51-21.99,1.59-5.44,2.1-6.43,6.27-6.43,9.38v102.03s0,0,0,0v12.47c0,1.56.24,7.69,5.69,8.74,4.19.81,10.48,1.04,16.92.99,1.96.01,3.93,0,5.83,0h56.84c2.79,0,5.81.02,8.79-.04,5.71.05,11.31,0,14.88-.69,5.44-1.05,4.76-5.04,4.74-7.91M337.84,10.35l-.03,101.69h-.02v12.93s-84.6-.4-84.6-.4l-.29-98.28s1.88-15.62-11.26-15.94h96.19Z"/>
      <path class="cls-1" d="M232.06,126.62v-1.27s.01,0,.02,0c0-.36-.01-.71-.01-1.05V11.02c0-3.11-1.92-7.28-7.35-9.38C219.27-.46,211.72.06,203.65.06h-56.84c-8.08,0-16.56-.51-21.99,1.59-5.44,2.1-6.43,6.27-6.43,9.38v102.03s0,0,0,0v12.47c0,1.56.24,7.69,5.69,8.74,4.19.81,10.48,1.04,16.92.99,1.96.01,3.93,0,5.83,0h56.84c2.79,0,5.81.02,8.79-.04,5.71.05,11.31,0,14.88-.69,5.44-1.05,4.76-5.04,4.74-7.91M220.03,10.35l-.03,101.69h-.02v12.93s-84.6-.4-84.6-.4l-.29-98.28s1.88-15.62-11.26-15.94h96.19Z"/>
      <path class="cls-1" d="M18.97,146.08c2.42,0,4.74.5,6.94,1.5,2.2,1,4.14,2.38,5.81,4.14,1.67,1.75,3,3.82,3.99,6.21.99,2.38,1.48,4.97,1.48,7.75s-.49,5.53-1.48,7.98c-.99,2.45-2.33,4.58-4.01,6.37-1.69,1.8-3.66,3.2-5.93,4.22-2.27,1.02-4.69,1.53-7.25,1.53s-5.01-.49-7.27-1.46c-2.26-.97-4.21-2.35-5.87-4.12-1.66-1.77-2.97-3.88-3.93-6.33-.96-2.45-1.44-5.15-1.44-8.11,0-2.73.48-5.29,1.44-7.69.96-2.4,2.28-4.48,3.97-6.25,1.69-1.77,3.68-3.17,6-4.2,2.31-1.03,4.83-1.55,7.56-1.55M18.43,148.13c-1.92,0-3.63.41-5.12,1.23-1.49.82-2.75,1.99-3.76,3.51-1.02,1.52-1.79,3.36-2.32,5.52-.53,2.16-.79,4.59-.79,7.29s.26,5.12.77,7.33c.52,2.22,1.28,4.12,2.3,5.73s2.28,2.84,3.78,3.72c1.5.88,3.23,1.32,5.18,1.32,1.75,0,3.38-.33,4.87-1,1.49-.67,2.79-1.71,3.91-3.11,1.11-1.41,1.99-3.2,2.61-5.39.63-2.19.94-4.8.94-7.84,0-2.87-.26-5.44-.77-7.71-.52-2.27-1.3-4.19-2.34-5.77-1.04-1.57-2.34-2.77-3.89-3.59-1.55-.82-3.34-1.23-5.37-1.23"/>
      <path class="cls-1" d="M57.09,183.86v1.04h-16.26v-1.04h1.34c.67,0,1.26-.05,1.78-.15.51-.1.94-.34,1.27-.71.33-.38.59-.95.77-1.72.18-.77.27-1.8.27-3.11v-24.53c0-.86-.02-1.58-.06-2.15-.04-.57-.11-1.04-.21-1.4-.1-.36-.24-.65-.44-.86-.19-.21-.46-.41-.79-.61-.83-.45-1.7-.67-2.59-.67h-1.34v-1.05h16.26v1.05h-1.34c-.67,0-1.26.06-1.78.17-.52.11-.94.36-1.28.73-.33.38-.59.95-.77,1.71-.18.77-.27,1.79-.27,3.07v24.53c0,.89.01,1.62.04,2.17.03.56.1,1.02.21,1.38.11.36.27.65.48.86.21.21.48.41.81.61.78.45,1.63.67,2.55.67h1.34Z"/>
      <path class="cls-1" d="M91.69,146.91v8.94h-.63c-.31-2.4-1.01-4.09-2.11-5.08-1.1-.99-2.72-1.48-4.87-1.48h-5.35v29.05c0,1.28.09,2.29.27,3.03.18.74.44,1.29.77,1.65.33.36.75.59,1.25.69.5.1,1.09.15,1.75.15h1.3v1.04h-16.09v-1.04h1.34c.67,0,1.25-.06,1.75-.17.5-.11.92-.36,1.25-.73.33-.38.59-.93.77-1.65s.27-1.71.27-2.97v-29.05h-4.56c-1.14,0-2.15.09-3.03.27-.88.18-1.64.52-2.28,1-.64.49-1.15,1.16-1.53,2.01-.38.85-.61,1.94-.69,3.28h-1.04v-8.94h31.43Z"/>
      <path class="cls-1" d="M113.47,146.08c2.42,0,4.74.5,6.94,1.5,2.2,1,4.14,2.38,5.81,4.14,1.67,1.75,3,3.82,3.99,6.21.99,2.38,1.48,4.97,1.48,7.75s-.49,5.53-1.48,7.98c-.99,2.45-2.33,4.58-4.01,6.37-1.69,1.8-3.66,3.2-5.93,4.22-2.27,1.02-4.69,1.53-7.25,1.53s-5.01-.49-7.27-1.46c-2.26-.97-4.21-2.35-5.87-4.12-1.66-1.77-2.97-3.88-3.93-6.33-.96-2.45-1.44-5.15-1.44-8.11,0-2.73.48-5.29,1.44-7.69.96-2.4,2.28-4.48,3.97-6.25,1.69-1.77,3.68-3.17,6-4.2,2.31-1.03,4.83-1.55,7.56-1.55M112.92,148.13c-1.92,0-3.63.41-5.12,1.23-1.49.82-2.75,1.99-3.76,3.51-1.02,1.52-1.79,3.36-2.32,5.52-.53,2.16-.79,4.59-.79,7.29s.26,5.12.77,7.33c.52,2.22,1.28,4.12,2.3,5.73,1.02,1.6,2.28,2.84,3.78,3.72,1.5.88,3.23,1.32,5.18,1.32,1.75,0,3.38-.33,4.87-1,1.49-.67,2.79-1.71,3.91-3.11,1.11-1.41,1.99-3.2,2.61-5.39.63-2.19.94-4.8.94-7.84,0-2.87-.26-5.44-.77-7.71-.52-2.27-1.3-4.19-2.34-5.77-1.04-1.57-2.34-2.77-3.89-3.59-1.55-.82-3.34-1.23-5.37-1.23"/>
      <path class="cls-1" d="M168.42,146.08l.88,12.91h-.88c-1.17-3.87-2.82-6.66-4.95-8.36-2.13-1.7-4.7-2.55-7.71-2.55-1.95,0-3.75.37-5.39,1.11-1.64.74-3.06,1.87-4.24,3.41-1.18,1.53-2.11,3.45-2.78,5.77-.67,2.31-1,5.04-1,8.19,0,2.54.31,4.83.94,6.9.63,2.06,1.55,3.82,2.76,5.29,1.21,1.46,2.7,2.59,4.45,3.38,1.75.79,3.77,1.19,6.06,1.19s4.57-.53,6.52-1.59c1.87-.98,3.94-3.06,6.23-6.27l.88.54c-1.92,3.37-4.14,5.84-6.67,7.42-2.52,1.57-5.54,2.36-9.05,2.36-2.7,0-5.18-.47-7.44-1.42-2.26-.95-4.2-2.28-5.83-3.99-1.63-1.71-2.9-3.75-3.82-6.1-.92-2.36-1.38-4.94-1.38-7.75,0-3.82.85-7.3,2.55-10.45,1.67-3.18,4-5.63,6.98-7.36,3.01-1.76,6.27-2.63,9.78-2.63,2.76,0,5.46.67,8.11,2.01.78.42,1.34.63,1.67.63.61,0,1.12-.25,1.52-.75.4-.5.69-1.13.86-1.88h.96Z"/>
      <path class="cls-1" d="M184.14,149v15h8.32c1.22,0,2.21-.11,2.97-.33.75-.22,1.34-.56,1.78-1,.43-.45.73-1.02.9-1.71.17-.7.28-1.52.33-2.47h1.04v13.21h-1.04c-.14-1.09-.3-1.99-.48-2.72-.18-.72-.47-1.3-.88-1.73-.41-.43-.97-.74-1.69-.92-.73-.18-1.7-.27-2.93-.27h-8.32v12.54c0,.95.01,1.7.04,2.26s.14.98.33,1.27c.19.29.5.48.92.56.42.08,1.03.13,1.84.13h6.44c1.09,0,2.01-.03,2.76-.08.75-.06,1.4-.17,1.94-.33.54-.17,1.02-.4,1.44-.69.42-.29.86-.66,1.34-1.11,1.11-1.09,2.3-2.83,3.55-5.22h1.13l-3.3,9.53h-29.25v-1.04h1.34c.36,0,.74-.04,1.13-.13.39-.08.76-.2,1.11-.36.35-.15.66-.36.94-.61.28-.25.47-.54.59-.88.22-.61.33-1.84.33-3.68v-24.66c0-2.42-.24-3.91-.71-4.47-.67-.75-1.8-1.13-3.39-1.13h-1.34v-1.04h29.25v8.32h-.67c-.28-1.37-.58-2.46-.9-3.28-.32-.82-.74-1.46-1.27-1.9-.53-.45-1.21-.73-2.03-.86-.82-.13-1.87-.19-3.16-.19h-10.41Z"/>
      <path class="cls-1" d="M206.41,146.91h10.28l23.24,28.5v-21.9c0-1.28-.09-2.3-.27-3.05-.18-.75-.45-1.31-.8-1.67-.35-.36-.77-.59-1.27-.69-.5-.1-1.07-.15-1.71-.15h-1.34v-1.04h13.25v1.04h-1.38c-.67,0-1.25.06-1.76.17-.5.11-.92.36-1.25.75-.33.39-.59.95-.75,1.67-.17.72-.25,1.71-.25,2.97v32.01h-1l-25.03-30.59v23.4c0,1.31.09,2.33.27,3.07.18.74.44,1.29.77,1.65.33.36.75.59,1.25.67.5.08,1.07.13,1.71.13h1.34v1.04h-13.21v-1.04h1.34c.67,0,1.25-.06,1.76-.17.5-.11.93-.36,1.27-.73.35-.38.61-.93.77-1.65.17-.72.25-1.71.25-2.97v-26.41c-.56-.67-1.02-1.2-1.4-1.59-.38-.39-.73-.71-1.07-.96-.33-.25-.7-.46-1.09-.63-.39-.17-.88-.35-1.46-.54-.56-.17-1.38-.25-2.47-.25v-1.04Z"/>
      <path class="cls-1" d="M281.76,146.91v8.94h-.63c-.31-2.4-1.01-4.09-2.11-5.08-1.1-.99-2.72-1.48-4.87-1.48h-5.35v29.05c0,1.28.09,2.29.27,3.03.18.74.44,1.29.77,1.65.33.36.75.59,1.25.69.5.1,1.09.15,1.75.15h1.3v1.04h-16.09v-1.04h1.34c.67,0,1.25-.06,1.75-.17.5-.11.92-.36,1.25-.73.33-.38.59-.93.77-1.65s.27-1.71.27-2.97v-29.05h-4.56c-1.14,0-2.15.09-3.03.27-.88.18-1.64.52-2.28,1-.64.49-1.15,1.16-1.53,2.01-.38.85-.61,1.94-.69,3.28h-1.04v-8.94h31.43Z"/>
      <path class="cls-1" d="M303.54,146.08c2.42,0,4.74.5,6.94,1.5,2.2,1,4.14,2.38,5.81,4.14,1.67,1.75,3,3.82,3.99,6.21.99,2.38,1.48,4.97,1.48,7.75s-.49,5.53-1.48,7.98c-.99,2.45-2.33,4.58-4.01,6.37-1.69,1.8-3.66,3.2-5.93,4.22-2.27,1.02-4.69,1.53-7.25,1.53s-5.02-.49-7.27-1.46c-2.26-.97-4.21-2.35-5.87-4.12-1.66-1.77-2.97-3.88-3.93-6.33-.96-2.45-1.44-5.15-1.44-8.11,0-2.73.48-5.29,1.44-7.69.96-2.4,2.28-4.48,3.97-6.25,1.69-1.77,3.68-3.17,6-4.2,2.31-1.03,4.83-1.55,7.56-1.55M302.99,148.13c-1.92,0-3.63.41-5.12,1.23-1.49.82-2.75,1.99-3.76,3.51-1.02,1.52-1.79,3.36-2.32,5.52-.53,2.16-.79,4.59-.79,7.29s.26,5.12.77,7.33c.52,2.22,1.28,4.12,2.3,5.73,1.02,1.6,2.28,2.84,3.78,3.72,1.5.88,3.23,1.32,5.18,1.32,1.75,0,3.38-.33,4.87-1,1.49-.67,2.79-1.71,3.91-3.11,1.11-1.41,1.99-3.2,2.61-5.39.63-2.19.94-4.8.94-7.84,0-2.87-.26-5.44-.77-7.71-.52-2.27-1.3-4.19-2.34-5.77-1.04-1.57-2.34-2.77-3.89-3.59-1.55-.82-3.34-1.23-5.37-1.23"/>
      <path class="cls-1" d="M350.26,146.08v13.12h-1.04c-.47-3.54-1.63-6.24-3.47-8.11-1.84-1.87-4.18-2.8-7.02-2.8-.98,0-1.87.17-2.67.5-.81.33-1.52.77-2.13,1.32-.61.54-1.09,1.16-1.42,1.86-.34.7-.5,1.42-.5,2.17,0,.7.14,1.36.42,1.99s1.14,1.61,2.59,2.95c2.42,1.53,4.58,2.8,6.48,3.8,1.78.98,4.19,2.45,7.23,4.43,1.31,1,2.31,2.19,3.01,3.57.7,1.38,1.04,2.82,1.04,4.33,0,1.42-.29,2.77-.88,4.05-.59,1.28-1.4,2.4-2.45,3.36-1.04.96-2.31,1.73-3.78,2.3-1.48.57-3.09.86-4.85.86-1.11,0-2.14-.08-3.09-.25-.17-.03-.61-.15-1.32-.36-.71-.21-1.47-.42-2.28-.65-.81-.22-1.56-.43-2.26-.63-.7-.19-1.1-.29-1.21-.29-.47,0-.84.14-1.11.42-.27.28-.47.86-.61,1.76h-1.04v-13.04h1.04c.5,2.67,1.16,4.72,1.96,6.14.39.67.91,1.29,1.57,1.86.65.57,1.39,1.07,2.21,1.5.82.43,1.71.77,2.65,1,.95.24,1.91.36,2.88.36,1.17,0,2.22-.17,3.15-.5.93-.33,1.73-.79,2.38-1.36.65-.57,1.16-1.23,1.51-1.99.35-.75.52-1.55.52-2.38,0-.95-.26-1.9-.77-2.84-.52-.95-1.39-1.88-2.61-2.8-1.2-.72-2.62-1.57-4.26-2.55-3.15-1.81-5.95-3.55-8.4-5.22-1.36-1.09-2.4-2.28-3.11-3.57s-1.07-2.74-1.07-4.33c0-1.34.28-2.61.83-3.82.56-1.21,1.33-2.28,2.32-3.2.99-.92,2.17-1.64,3.53-2.17,1.36-.53,2.84-.79,4.43-.79,2.01,0,4.14.49,6.39,1.46.53.22.98.41,1.34.54.36.14.65.2.88.17.5,0,.9-.14,1.21-.42s.54-.86.71-1.75h1.04Z"/>
    </g>
  </g>
</svg>