<?xml version="1.0" encoding="UTF-8"?>
<svg id="Layer_2" xmlns="http://www.w3.org/2000/svg" version="1.1" viewBox="0 0 352.8 185.8">
  <!-- Generator: Adobe Illustrator 29.6.1, SVG Export Plug-In . SVG Version: 2.1.1 Build 9)  -->
  <defs>
    <style>
      .st0 {
        fill: #c08229;
      }
    </style>
  </defs>
  <g id="Layer_1-2">
    <g>
      <path class="st0" d="M109.6,68c5.4-1.1,5.3-4.5,5.3-6v-3.2h0V8.9c0-1.6-1.9-7-7.3-8.1-5.4-1-13-.8-21.1-.8H29.6c-8.1,0-16.6-.3-22,.8C2.1,1.9,1.2,8.1,1.2,9.7v52.5c0,1.6-.1,5,5.3,6.1-5.4,1.1-5.3,2.9-5.3,4.4v52.7c0,1.6.2,7.7,5.7,8.7,5.4,1.1,14.4,1.1,22.6.9h57c8.1,0,18.2.4,23.7-.6,5.4-1.1,4.8-5,4.7-7.9v-45.7h0v-8.4c0-1.6.1-3.4-5.3-4.4M4.4,9l98.4.6v53.4s-87.7,0-87.7,0l-.2-46.5s-.4-6.6-10.5-7.6M102.8,125.4H14.7c0,0,.2-41.8.2-41.8,0,0,1.2-11.1-8.9-12.1h96.8s0,53.8,0,53.8h0Z"/>
      <path class="st0" d="M349.9,126.6v-1.3h0c0-.4,0-.7,0-1.1V11c0-3.1-1.9-7.3-7.4-9.4-5.4-2.1-13-1.6-21.1-1.6h-56.8c-8.1,0-16.6-.5-22,1.6-5.4,2.1-6.4,6.3-6.4,9.4v102h0v12.5c0,1.6.2,7.7,5.7,8.7,4.2.8,10.5,1,16.9,1,2,0,3.9,0,5.8,0h56.8c2.8,0,5.8,0,8.8,0,5.7,0,11.3,0,14.9-.7,5.4-1.1,4.8-5,4.7-7.9M337.8,10.3v101.7h0v12.9l-84.6-.4-.3-98.3s1.9-15.6-11.3-15.9h96.2Z"/>
      <path class="st0" d="M232.1,126.6v-1.3h0c0-.4,0-.7,0-1.1V11c0-3.1-1.9-7.3-7.4-9.4C219.3-.5,211.7,0,203.6,0h-56.8c-8.1,0-16.6-.5-22,1.6-5.4,2.1-6.4,6.3-6.4,9.4v102h0v12.5c0,1.6.2,7.7,5.7,8.7,4.2.8,10.5,1,16.9,1,2,0,3.9,0,5.8,0h56.8c2.8,0,5.8,0,8.8,0,5.7,0,11.3,0,14.9-.7,5.4-1.1,4.8-5,4.7-7.9M220,10.3v101.7h0v12.9l-84.6-.4-.3-98.3s1.9-15.6-11.3-15.9h96.2Z"/>
      <path class="st0" d="M19,146.1c2.4,0,4.7.5,6.9,1.5s4.1,2.4,5.8,4.1c1.7,1.8,3,3.8,4,6.2,1,2.4,1.5,5,1.5,7.8s-.5,5.5-1.5,8c-1,2.4-2.3,4.6-4,6.4-1.7,1.8-3.7,3.2-5.9,4.2s-4.7,1.5-7.2,1.5-5-.5-7.3-1.5-4.2-2.4-5.9-4.1c-1.7-1.8-3-3.9-3.9-6.3-1-2.4-1.4-5.1-1.4-8.1s.5-5.3,1.4-7.7c1-2.4,2.3-4.5,4-6.2s3.7-3.2,6-4.2c2.3-1,4.8-1.6,7.6-1.6M18.4,148.1c-1.9,0-3.6.4-5.1,1.2-1.5.8-2.8,2-3.8,3.5-1,1.5-1.8,3.4-2.3,5.5s-.8,4.6-.8,7.3.3,5.1.8,7.3c.5,2.2,1.3,4.1,2.3,5.7s2.3,2.8,3.8,3.7,3.2,1.3,5.2,1.3,3.4-.3,4.9-1c1.5-.7,2.8-1.7,3.9-3.1,1.1-1.4,2-3.2,2.6-5.4.6-2.2.9-4.8.9-7.8s-.3-5.4-.8-7.7c-.5-2.3-1.3-4.2-2.3-5.8-1-1.6-2.3-2.8-3.9-3.6-1.5-.8-3.3-1.2-5.4-1.2"/>
      <path class="st0" d="M57.1,183.9v1h-16.3v-1h1.3c.7,0,1.3,0,1.8-.1.5-.1.9-.3,1.3-.7.3-.4.6-.9.8-1.7s.3-1.8.3-3.1v-24.5c0-.9,0-1.6,0-2.1,0-.6-.1-1-.2-1.4s-.2-.6-.4-.9c-.2-.2-.5-.4-.8-.6-.8-.4-1.7-.7-2.6-.7h-1.3v-1.1h16.3v1.1h-1.3c-.7,0-1.3,0-1.8.2s-.9.4-1.3.7c-.3.4-.6.9-.8,1.7-.2.8-.3,1.8-.3,3.1v24.5c0,.9,0,1.6,0,2.2,0,.6,0,1,.2,1.4s.3.6.5.9.5.4.8.6c.8.4,1.6.7,2.5.7h1.3Z"/>
      <path class="st0" d="M91.7,146.9v8.9h-.6c-.3-2.4-1-4.1-2.1-5.1s-2.7-1.5-4.9-1.5h-5.3v29.1c0,1.3,0,2.3.3,3s.4,1.3.8,1.6c.3.4.8.6,1.2.7s1.1.1,1.8.1h1.3v1h-16.1v-1h1.3c.7,0,1.2,0,1.8-.2s.9-.4,1.2-.7c.3-.4.6-.9.8-1.6s.3-1.7.3-3v-29.1h-4.6c-1.1,0-2.2,0-3,.3-.9.2-1.6.5-2.3,1-.6.5-1.2,1.2-1.5,2-.4.9-.6,1.9-.7,3.3h-1v-8.9h31.5Z"/>
      <path class="st0" d="M113.5,146.1c2.4,0,4.7.5,6.9,1.5,2.2,1,4.1,2.4,5.8,4.1,1.7,1.8,3,3.8,4,6.2,1,2.4,1.5,5,1.5,7.8s-.5,5.5-1.5,8c-1,2.4-2.3,4.6-4,6.4-1.7,1.8-3.7,3.2-5.9,4.2s-4.7,1.5-7.2,1.5-5-.5-7.3-1.5c-2.3-1-4.2-2.4-5.9-4.1-1.7-1.8-3-3.9-3.9-6.3s-1.4-5.1-1.4-8.1.5-5.3,1.4-7.7c1-2.4,2.3-4.5,4-6.2s3.7-3.2,6-4.2c2.3-1,4.8-1.6,7.6-1.6M112.9,148.1c-1.9,0-3.6.4-5.1,1.2-1.5.8-2.8,2-3.8,3.5-1,1.5-1.8,3.4-2.3,5.5s-.8,4.6-.8,7.3.3,5.1.8,7.3c.5,2.2,1.3,4.1,2.3,5.7,1,1.6,2.3,2.8,3.8,3.7s3.2,1.3,5.2,1.3,3.4-.3,4.9-1c1.5-.7,2.8-1.7,3.9-3.1,1.1-1.4,2-3.2,2.6-5.4.6-2.2.9-4.8.9-7.8s-.3-5.4-.8-7.7c-.5-2.3-1.3-4.2-2.3-5.8-1-1.6-2.3-2.8-3.9-3.6-1.6-.8-3.3-1.2-5.4-1.2"/>
      <path class="st0" d="M168.4,146.1l.9,12.9h-.9c-1.2-3.9-2.8-6.7-4.9-8.4-2.1-1.7-4.7-2.6-7.7-2.6s-3.8.4-5.4,1.1-3.1,1.9-4.2,3.4c-1.2,1.5-2.1,3.4-2.8,5.8-.7,2.3-1,5-1,8.2s.3,4.8.9,6.9c.6,2.1,1.6,3.8,2.8,5.3,1.2,1.5,2.7,2.6,4.4,3.4,1.8.8,3.8,1.2,6.1,1.2s4.6-.5,6.5-1.6c1.9-1,3.9-3.1,6.2-6.3l.9.5c-1.9,3.4-4.1,5.8-6.7,7.4-2.5,1.6-5.5,2.4-9.1,2.4s-5.2-.5-7.4-1.4c-2.3-.9-4.2-2.3-5.8-4s-2.9-3.8-3.8-6.1c-.9-2.4-1.4-4.9-1.4-7.8s.9-7.3,2.6-10.4c1.7-3.2,4-5.6,7-7.4,3-1.8,6.3-2.6,9.8-2.6s5.5.7,8.1,2c.8.4,1.3.6,1.7.6.6,0,1.1-.2,1.5-.8.4-.5.7-1.1.9-1.9h1,0Z"/>
      <path class="st0" d="M184.1,149v15h8.3c1.2,0,2.2-.1,3-.3.8-.2,1.3-.6,1.8-1,.4-.4.7-1,.9-1.7.2-.7.3-1.5.3-2.5h1v13.2h-1c-.1-1.1-.3-2-.5-2.7-.2-.7-.5-1.3-.9-1.7s-1-.7-1.7-.9c-.7-.2-1.7-.3-2.9-.3h-8.3v12.5c0,.9,0,1.7,0,2.3s.1,1,.3,1.3c.2.3.5.5.9.6s1,.1,1.8.1h6.4c1.1,0,2,0,2.8,0,.8,0,1.4-.2,1.9-.3.5-.2,1-.4,1.4-.7.4-.3.9-.7,1.3-1.1,1.1-1.1,2.3-2.8,3.6-5.2h1.1l-3.3,9.5h-29.2v-1h1.3c.4,0,.7,0,1.1-.1.4,0,.8-.2,1.1-.4.4-.1.7-.4.9-.6s.5-.5.6-.9c.2-.6.3-1.8.3-3.7v-24.7c0-2.4-.2-3.9-.7-4.5-.7-.8-1.8-1.1-3.4-1.1h-1.3v-1h29.2v8.3h-.7c-.3-1.4-.6-2.5-.9-3.3-.3-.8-.7-1.5-1.3-1.9-.5-.4-1.2-.7-2-.9-.8-.1-1.9-.2-3.2-.2h-10.4,0Z"/>
      <path class="st0" d="M206.4,146.9h10.3l23.2,28.5v-21.9c0-1.3,0-2.3-.3-3.1-.2-.8-.4-1.3-.8-1.7s-.8-.6-1.3-.7-1.1-.1-1.7-.1h-1.3v-1h13.2v1h-1.4c-.7,0-1.2,0-1.8.2-.5.1-.9.4-1.2.8s-.6.9-.8,1.7c-.2.7-.2,1.7-.2,3v32h-1l-25-30.6v23.4c0,1.3,0,2.3.3,3.1.2.7.4,1.3.8,1.6s.8.6,1.2.7,1.1.1,1.7.1h1.3v1h-13.2v-1h1.3c.7,0,1.2,0,1.8-.2.5-.1.9-.4,1.3-.7.4-.4.6-.9.8-1.6.2-.7.2-1.7.2-3v-26.4c-.6-.7-1-1.2-1.4-1.6-.4-.4-.7-.7-1.1-1-.3-.2-.7-.5-1.1-.6s-.9-.4-1.5-.5c-.6-.2-1.4-.2-2.5-.2v-1h0Z"/>
      <path class="st0" d="M281.8,146.9v8.9h-.6c-.3-2.4-1-4.1-2.1-5.1-1.1-1-2.7-1.5-4.9-1.5h-5.4v29.1c0,1.3,0,2.3.3,3s.4,1.3.8,1.6.8.6,1.2.7,1.1.1,1.8.1h1.3v1h-16.1v-1h1.3c.7,0,1.2,0,1.8-.2s.9-.4,1.2-.7c.3-.4.6-.9.8-1.6s.3-1.7.3-3v-29.1h-4.6c-1.1,0-2.1,0-3,.3-.9.2-1.6.5-2.3,1-.6.5-1.1,1.2-1.5,2-.4.9-.6,1.9-.7,3.3h-1v-8.9h31.5Z"/>
      <path class="st0" d="M303.5,146.1c2.4,0,4.7.5,6.9,1.5s4.1,2.4,5.8,4.1c1.7,1.8,3,3.8,4,6.2,1,2.4,1.5,5,1.5,7.8s-.5,5.5-1.5,8c-1,2.4-2.3,4.6-4,6.4-1.7,1.8-3.7,3.2-5.9,4.2s-4.7,1.5-7.2,1.5-5-.5-7.3-1.5c-2.3-1-4.2-2.4-5.9-4.1-1.7-1.8-3-3.9-3.9-6.3s-1.4-5.1-1.4-8.1.5-5.3,1.4-7.7c1-2.4,2.3-4.5,4-6.2s3.7-3.2,6-4.2c2.3-1,4.8-1.6,7.6-1.6M303,148.1c-1.9,0-3.6.4-5.1,1.2-1.5.8-2.8,2-3.8,3.5-1,1.5-1.8,3.4-2.3,5.5s-.8,4.6-.8,7.3.3,5.1.8,7.3c.5,2.2,1.3,4.1,2.3,5.7,1,1.6,2.3,2.8,3.8,3.7s3.2,1.3,5.2,1.3,3.4-.3,4.9-1,2.8-1.7,3.9-3.1c1.1-1.4,2-3.2,2.6-5.4.6-2.2.9-4.8.9-7.8s-.3-5.4-.8-7.7c-.5-2.3-1.3-4.2-2.3-5.8-1-1.6-2.3-2.8-3.9-3.6-1.5-.8-3.3-1.2-5.4-1.2"/>
      <path class="st0" d="M350.3,146.1v13.1h-1c-.5-3.5-1.6-6.2-3.5-8.1s-4.2-2.8-7-2.8-1.9.2-2.7.5c-.8.3-1.5.8-2.1,1.3-.6.5-1.1,1.2-1.4,1.9-.3.7-.5,1.4-.5,2.2s.1,1.4.4,2,1.1,1.6,2.6,2.9c2.4,1.5,4.6,2.8,6.5,3.8,1.8,1,4.2,2.4,7.2,4.4,1.3,1,2.3,2.2,3,3.6s1,2.8,1,4.3-.3,2.8-.9,4.1-1.4,2.4-2.5,3.4c-1,1-2.3,1.7-3.8,2.3-1.5.6-3.1.9-4.9.9s-2.1,0-3.1-.2c-.2,0-.6-.1-1.3-.4-.7-.2-1.5-.4-2.3-.6-.8-.2-1.6-.4-2.3-.6-.7-.2-1.1-.3-1.2-.3-.5,0-.8.1-1.1.4s-.5.9-.6,1.8h-1v-13h1c.5,2.7,1.2,4.7,2,6.1.4.7.9,1.3,1.6,1.9.6.6,1.4,1.1,2.2,1.5.8.4,1.7.8,2.6,1,1,.2,1.9.4,2.9.4s2.2-.2,3.1-.5,1.7-.8,2.4-1.4,1.2-1.2,1.5-2c.4-.8.5-1.6.5-2.4s-.3-1.9-.8-2.8c-.5-.9-1.4-1.9-2.6-2.8-1.2-.7-2.6-1.6-4.3-2.6-3.1-1.8-6-3.6-8.4-5.2-1.4-1.1-2.4-2.3-3.1-3.6s-1.1-2.7-1.1-4.3.3-2.6.8-3.8c.6-1.2,1.3-2.3,2.3-3.2,1-.9,2.2-1.6,3.5-2.2s2.8-.8,4.4-.8,4.1.5,6.4,1.5c.5.2,1,.4,1.3.5.4.1.6.2.9.2.5,0,.9-.1,1.2-.4s.5-.9.7-1.8h1.1Z"/>
    </g>
  </g>
</svg>